<svg id="Layer_1" data-name="Layer 1" xmlns="http://www.w3.org/2000/svg" viewBox="0 0 2000 390.63"><defs><style>.cls-1{fill:#1f87fc;}.cls-2{fill:#fe2b25;}.cls-3{fill:#ffb900;}.cls-4{fill:#00ab47;}</style></defs><path class="cls-1" d="M129.22,287c-3.53.26-6.66.4-9.38.4q-24.06,0-31-16.31a24.77,24.77,0,0,1-15.5,13.8q-6.52,2.1-21.61,2.51a41.09,41.09,0,0,1-32.22-13.54q-7.75-8.61-9-23.4-1.23-17.24,4.89-26.27H4V184.61q3.27-4.89,20.8-24.06,4.08-4.47,24.06-24.47c-1.63-1.08-4.48-1.63-8.56-1.63q-16.32,0-28.55,9V93.67Q28.08,82.26,52.15,82.25q11.82,0,23.24,6.94t13.87,14.27Q112.09,88,134.93,84.29q37.11-6.11,62.4,2.86,53.41,19.17,53.42,101.95,0,45.68-21.2,73-20,25.29-50.17,25.28a70.29,70.29,0,0,1-13-1.22v-31a48.8,48.8,0,0,1-13.45,20.39Q142.26,285.76,129.22,287ZM53.37,200.52h9.79a34.74,34.74,0,0,0-6.93,21.21q0,12.22,9,12.23,8.14,0,8.15-17.94v-15.5h29.37v15.69q0,17.76,6.11,17.75,11.82,0,10.2-29.54a50.37,50.37,0,0,0-9.18-26.67q-8.35-11.9-16.92-11.89a8.08,8.08,0,0,0-3.67.81Q80.27,171.56,53.37,200.52Zm117.45,34.66q9.78,1.23,17.74-11.62t7.95-31.2q0-51-27.32-58.31-17.13-4.91-37.52,1.63,15.5,4.48,26.92,23.24,12.22,20.4,13,46.49A249.36,249.36,0,0,1,170.82,235.18Z"/><path class="cls-2" d="M333.94,155.66h82.38v34.26h-8.16a13.91,13.91,0,0,0-11.42,5.71,23.18,23.18,0,0,0-4.89,13.45q-.83,22.44,18.76,22.43,25.69,0,25.28-37.11-.4-33.84-16.72-48.53-14.67-13.05-44-13.05-55.47,0-57.5,79.93Q316.4,253.54,333.74,276t51.18,23.66q30.58.81,45.26-19.17h52.2q-3.27,33.84-34.25,53.42Q418.76,352.23,376,351q-56.28-1.63-85.64-37.92Q263,278.82,263,219.28q0-137,115-137,109.29,0,110.11,113.78.41,86.06-78.3,87.27-70.95,1.23-72.18-59.54a62.67,62.67,0,0,1,9-33.84H333.94Z"/><path class="cls-2" d="M427.73,19.45h53V141.79q-2.85-22.41-21.62-39.55Q443.64,88,427.73,85.11Z"/><path class="cls-3" d="M590,146.28q0-10.6-15.5-14.27-11.41-3.27-25.69-1.63-25.29,2.44-38.33,15.9V95.71Q526,82.26,555.78,82.25,598.61,82.25,617,99q7.34-6.85,21.81-11.78t25.9-4.94q29.36-.39,40,2.9,13.85,4.13,17.94,9.91v52q-11.83-12.65-38.74-16.72a54.35,54.35,0,0,0-9.79-.82q-29.77,0-33.44,16.31,6.12-.41,27.73-.4,28.95-.41,45.67,18.35,15.5,17.53,15.5,46.49,0,31.4-18.35,51.38Q687.91,287,617.36,287q-72.18,0-95.83-25.29Q502,240.9,502,210.31q0-23.25,11.83-40,7.34-10.6,21.41-17.94a57,57,0,0,1,28.34-6.93Q584.34,145.47,590,146.28ZM586,192.36q-25.29,0-25.28,18.76,0,23.65,56.68,23.65,53.43,0,53.43-23.65,0-18.75-23.25-18.76Z"/><path class="cls-1" d="M752.35,146.28V92.52q11.42-9.45,40.37-10.67,31.39-1.23,44.45,22Q851.45,90,873.06,84.29a98.93,98.93,0,0,1,23.65-2.44q19.57,0,33,4.89,53,19.58,51.79,102.36-.42,45.68-20.6,72t-51.18,26.3a68.22,68.22,0,0,1-12.64-1.22V234.77q13.05.82,21.82-10.8t8.77-31.61q0-22.43-7.34-38.33-9.39-21.21-29-21.21-9.78,0-17.94,7.3,10.59,4.88,17.94,21.1Q900,179.88,900,205q0,59.23-39.15,75.46-15.51,6.5-39.56,6.89-38.74.81-57.1-17.83-15.49-15.8-20.79-45.39a152,152,0,0,1-1.64-23.91q0-30.39,7.75-42.55A36.86,36.86,0,0,0,778,170.34q9,0,16.11-6.93a22,22,0,0,0,7.13-16.31,21.73,21.73,0,0,0-2-9q-3.68-7.74-15.09-7.74a40.78,40.78,0,0,0-18.35,4.69Q756.42,139.75,752.35,146.28Zm41.19,64a24.18,24.18,0,0,0,4.89,16.31q6.93,8.56,18.76,8.56a42.91,42.91,0,0,0,13.46-2.44q16.3-4.91,15.49-30.59-.4-16.71-8.15-20a39.52,39.52,0,0,1-18.76,22.43Q805.78,211.94,793.54,210.31Z"/><path class="cls-1" d="M988.06,87.15q13.86-6.53,35.89-4.49,10.18.82,20.8,7.75,31.8,20,30.58,94.61-.82,57.51-18.35,79.53-13.87,17.54-34.26,21.61a52.4,52.4,0,0,1-34.66-4.49v-52.2q8.57,5.72,16.72,3.67,15.5-4.06,15.5-48.93,0-47.71-15.5-50.16-10.2-1.63-16.72,4.48Z"/><path class="cls-4" d="M1333.06,287c-3.53.26-6.66.4-9.38.4q-24.06,0-31-16.31a24.77,24.77,0,0,1-15.5,13.8q-6.53,2.1-21.61,2.51a41.09,41.09,0,0,1-32.22-13.54q-7.75-8.61-9-23.4-1.23-17.24,4.89-26.27h-11.42V184.61q3.27-4.89,20.8-24.06,4.08-4.47,24.06-24.47c-1.63-1.08-4.48-1.63-8.56-1.63q-16.32,0-28.55,9V93.67q16.31-11.42,40.38-11.42,11.82,0,23.24,6.94t13.87,14.27q22.83-15.49,45.67-19.17,37.11-6.11,62.4,2.86,53.41,19.17,53.42,101.95,0,45.68-21.21,73-20,25.29-50.16,25.28a70.29,70.29,0,0,1-13-1.22v-31a48.8,48.8,0,0,1-13.45,20.39Q1346.1,285.76,1333.06,287Zm-75.85-86.46H1267a34.75,34.75,0,0,0-6.94,21.21q0,12.22,9,12.23,8.14,0,8.15-17.94v-15.5h29.37v15.69q0,17.76,6.11,17.75,11.82,0,10.2-29.54a50.37,50.37,0,0,0-9.18-26.67q-8.36-11.9-16.92-11.89a8.08,8.08,0,0,0-3.67.81Q1284.11,171.56,1257.21,200.52Zm117.45,34.66q9.78,1.23,17.74-11.62t7.95-31.2q0-51-27.32-58.31-17.13-4.91-37.52,1.63,15.49,4.48,26.92,23.24,12.22,20.4,13,46.49A249.61,249.61,0,0,1,1374.66,235.18Z"/><path class="cls-2" d="M1521.47,79.4q23.23-15.9,34.25-29.77,6.52-8.16,16.32-31.4H1630a118.37,118.37,0,0,1-13.67,35.07A92,92,0,0,1,1591.2,81a63.08,63.08,0,0,1,11,1.63q40.79,9.39,54.24,55.06,6.52,22,6.12,49.75-.83,47.31-24.47,73.4-25.29,27.75-73,27.74-97.47,0-98.28-103.59-.4-51.78,26.1-80.74A164,164,0,0,1,1521.47,79.4Zm0,106q0,22.44,11.42,36.5t31,14.07q19.17,0,30.38-14.27t11.22-34.67q0-53.84-41.19-53.83-20.4,0-31.61,14.88T1521.47,185.43Z"/><path class="cls-3" d="M1745.76,155.66h82.38v34.26H1820a13.91,13.91,0,0,0-11.42,5.71,23.18,23.18,0,0,0-4.89,13.45q-.83,22.44,18.76,22.43,25.69,0,25.28-37.11-.4-33.84-16.72-48.53-14.67-13.05-44-13.05-55.47,0-57.5,79.93-1.23,40.78,16.11,63.21t51.18,23.66q30.59.81,45.26-19.17h52.2q-3.26,33.84-34.25,53.42-29.37,18.36-72.18,17.13-56.28-1.63-85.64-37.92-27.33-34.26-27.33-93.8,0-137,115-137,109.28,0,110.1,113.78.4,86.06-78.3,87.27-71,1.23-72.18-59.54a62.67,62.67,0,0,1,9-33.84h-12.64Z"/><path class="cls-3" d="M1906.43,87.15q13.86-6.53,35.89-4.49,10.18.82,20.8,7.75,31.82,20,30.58,94.61-.81,57.51-18.35,79.53-13.86,17.54-34.25,21.61a52.42,52.42,0,0,1-34.67-4.49v-52.2q8.57,5.72,16.72,3.67,15.49-4.06,15.5-48.93,0-47.71-15.5-50.16-10.2-1.63-16.72,4.48Z"/></svg>