<svg width="36" height="36" viewBox="0 0 36 36" fill="none" xmlns="http://www.w3.org/2000/svg">
<path d="M29.4 31.5L19.95 22.05C19.2 22.65 18.3375 23.125 17.3625 23.475C16.3875 23.825 15.35 24 14.25 24C11.525 24 9.219 23.056 7.332 21.168C5.445 19.28 4.501 16.974 4.5 14.25C4.5 11.525 5.444 9.219 7.332 7.332C9.22 5.445 11.526 4.501 14.25 4.5C16.975 4.5 19.281 5.444 21.168 7.332C23.055 9.22 23.999 11.526 24 14.25C24 15.35 23.825 16.3875 23.475 17.3625C23.125 18.3375 22.65 19.2 22.05 19.95L31.5 29.4L29.4 31.5ZM14.25 21C16.125 21 17.719 20.3435 19.032 19.0305C20.345 17.7175 21.001 16.124 21 14.25C21 12.375 20.3435 10.781 19.0305 9.468C17.7175 8.155 16.124 7.499 14.25 7.5C12.375 7.5 10.781 8.1565 9.468 9.4695C8.155 10.7825 7.499 12.376 7.5 14.25C7.5 16.125 8.1565 17.719 9.4695 19.032C10.7825 20.345 12.376 21.001 14.25 21Z" fill="#606268"/>
</svg>
